<mxfile host="Electron" modified="2023-09-06T12:53:40.502Z" agent="Mozilla/5.0 (Windows NT 10.0; Win64; x64) AppleWebKit/537.36 (KHTML, like Gecko) draw.io/21.6.8 Chrome/114.0.5735.289 Electron/25.5.0 Safari/537.36" etag="HFp4xdjZjGhTpdxLV8Z5" version="21.6.8" type="device">
  <diagram name="Page-1" id="KN76DtPj66UTzEIFMGvE">
    <mxGraphModel dx="938" dy="696" grid="1" gridSize="10" guides="1" tooltips="1" connect="1" arrows="1" fold="1" page="1" pageScale="1" pageWidth="827" pageHeight="1169" math="0" shadow="0">
      <root>
        <mxCell id="0" />
        <mxCell id="1" parent="0" />
        <mxCell id="qqJEVfwDHv_wI0d-Mq3L-48" value="" style="group" parent="1" vertex="1" connectable="0">
          <mxGeometry x="100" y="40" width="140" height="52.86298076923076" as="geometry" />
        </mxCell>
        <mxCell id="qqJEVfwDHv_wI0d-Mq3L-15" value="&lt;p style=&quot;margin:0px;margin-top:4px;text-align:center;&quot;&gt;&lt;b&gt;Exercise&lt;/b&gt;&lt;/p&gt;&lt;hr size=&quot;1&quot;&gt;&lt;div style=&quot;height:2px;&quot;&gt;&lt;/div&gt;" style="verticalAlign=top;align=left;overflow=fill;fontSize=12;fontFamily=Helvetica;html=1;whiteSpace=wrap;" parent="qqJEVfwDHv_wI0d-Mq3L-48" vertex="1">
          <mxGeometry y="-21.42765898704863" width="140" height="71.42552995682877" as="geometry" />
        </mxCell>
        <mxCell id="qqJEVfwDHv_wI0d-Mq3L-182" value="State" style="text;html=1;align=center;verticalAlign=middle;resizable=0;points=[];autosize=1;strokeColor=none;fillColor=none;" parent="qqJEVfwDHv_wI0d-Mq3L-48" vertex="1">
          <mxGeometry y="22.857235021585616" width="50" height="30" as="geometry" />
        </mxCell>
        <mxCell id="qqJEVfwDHv_wI0d-Mq3L-16" value="ID" style="text;html=1;align=center;verticalAlign=middle;resizable=0;points=[];autosize=1;strokeColor=none;fillColor=none;fontStyle=4" parent="qqJEVfwDHv_wI0d-Mq3L-48" vertex="1">
          <mxGeometry x="5" y="-0.7104239654630096" width="40" height="30" as="geometry" />
        </mxCell>
        <mxCell id="qqJEVfwDHv_wI0d-Mq3L-183" value="Text" style="text;html=1;align=center;verticalAlign=middle;resizable=0;points=[];autosize=1;strokeColor=none;fillColor=none;" parent="qqJEVfwDHv_wI0d-Mq3L-48" vertex="1">
          <mxGeometry x="90" y="22.86298076923076" width="50" height="30" as="geometry" />
        </mxCell>
        <mxCell id="qqJEVfwDHv_wI0d-Mq3L-176" value="Title" style="text;html=1;align=center;verticalAlign=middle;resizable=0;points=[];autosize=1;strokeColor=none;fillColor=none;" parent="qqJEVfwDHv_wI0d-Mq3L-48" vertex="1">
          <mxGeometry y="10.003405528061293" width="50" height="30" as="geometry" />
        </mxCell>
        <mxCell id="qqJEVfwDHv_wI0d-Mq3L-177" value="Text" style="text;html=1;align=center;verticalAlign=middle;resizable=0;points=[];autosize=1;strokeColor=none;fillColor=none;" parent="qqJEVfwDHv_wI0d-Mq3L-48" vertex="1">
          <mxGeometry x="90" y="10.002980769230753" width="50" height="30" as="geometry" />
        </mxCell>
        <mxCell id="qqJEVfwDHv_wI0d-Mq3L-17" value="int" style="text;html=1;align=center;verticalAlign=middle;resizable=0;points=[];autosize=1;strokeColor=none;fillColor=none;" parent="qqJEVfwDHv_wI0d-Mq3L-48" vertex="1">
          <mxGeometry x="95" y="-0.7170192307692318" width="40" height="30" as="geometry" />
        </mxCell>
        <mxCell id="qqJEVfwDHv_wI0d-Mq3L-49" value="" style="group" parent="1" vertex="1" connectable="0">
          <mxGeometry x="540" y="20" width="140" height="80" as="geometry" />
        </mxCell>
        <mxCell id="qqJEVfwDHv_wI0d-Mq3L-50" value="&lt;p style=&quot;margin:0px;margin-top:4px;text-align:center;&quot;&gt;&lt;b&gt;Question&lt;/b&gt;&lt;/p&gt;&lt;hr size=&quot;1&quot;&gt;&lt;div style=&quot;height:2px;&quot;&gt;&lt;/div&gt;" style="verticalAlign=top;align=left;overflow=fill;fontSize=12;fontFamily=Helvetica;html=1;whiteSpace=wrap;" parent="qqJEVfwDHv_wI0d-Mq3L-49" vertex="1">
          <mxGeometry width="140" height="80" as="geometry" />
        </mxCell>
        <mxCell id="qqJEVfwDHv_wI0d-Mq3L-186" value="Title" style="text;html=1;align=center;verticalAlign=middle;resizable=0;points=[];autosize=1;strokeColor=none;fillColor=none;" parent="qqJEVfwDHv_wI0d-Mq3L-49" vertex="1">
          <mxGeometry y="32.50369230769231" width="50" height="30" as="geometry" />
        </mxCell>
        <mxCell id="qqJEVfwDHv_wI0d-Mq3L-187" value="Text" style="text;html=1;align=center;verticalAlign=middle;resizable=0;points=[];autosize=1;strokeColor=none;fillColor=none;" parent="qqJEVfwDHv_wI0d-Mq3L-49" vertex="1">
          <mxGeometry x="90" y="32.50369230769231" width="50" height="30" as="geometry" />
        </mxCell>
        <mxCell id="qqJEVfwDHv_wI0d-Mq3L-188" value="Type" style="text;html=1;align=center;verticalAlign=middle;resizable=0;points=[];autosize=1;strokeColor=none;fillColor=none;" parent="qqJEVfwDHv_wI0d-Mq3L-49" vertex="1">
          <mxGeometry y="47.50369230769232" width="50" height="30" as="geometry" />
        </mxCell>
        <mxCell id="qqJEVfwDHv_wI0d-Mq3L-189" value="Text" style="text;html=1;align=center;verticalAlign=middle;resizable=0;points=[];autosize=1;strokeColor=none;fillColor=none;" parent="qqJEVfwDHv_wI0d-Mq3L-49" vertex="1">
          <mxGeometry x="90" y="47.50369230769232" width="50" height="30" as="geometry" />
        </mxCell>
        <mxCell id="qqJEVfwDHv_wI0d-Mq3L-190" value="ID" style="text;html=1;align=center;verticalAlign=middle;resizable=0;points=[];autosize=1;strokeColor=none;fillColor=none;fontStyle=4" parent="qqJEVfwDHv_wI0d-Mq3L-49" vertex="1">
          <mxGeometry x="5" y="17.502980769230774" width="40" height="30" as="geometry" />
        </mxCell>
        <mxCell id="qqJEVfwDHv_wI0d-Mq3L-191" value="int" style="text;html=1;align=center;verticalAlign=middle;resizable=0;points=[];autosize=1;strokeColor=none;fillColor=none;" parent="qqJEVfwDHv_wI0d-Mq3L-49" vertex="1">
          <mxGeometry x="95" y="17.502980769230774" width="40" height="30" as="geometry" />
        </mxCell>
        <mxCell id="qqJEVfwDHv_wI0d-Mq3L-112" value="" style="group" parent="1" vertex="1" connectable="0">
          <mxGeometry x="95" y="310" width="150" height="80" as="geometry" />
        </mxCell>
        <mxCell id="qqJEVfwDHv_wI0d-Mq3L-113" value="&lt;p style=&quot;margin:0px;margin-top:4px;text-align:center;&quot;&gt;&lt;b&gt;Fulfillment&lt;/b&gt;&lt;/p&gt;&lt;hr size=&quot;1&quot;&gt;&lt;div style=&quot;height:2px;&quot;&gt;&lt;/div&gt;" style="verticalAlign=top;align=left;overflow=fill;fontSize=12;fontFamily=Helvetica;html=1;whiteSpace=wrap;" parent="qqJEVfwDHv_wI0d-Mq3L-112" vertex="1">
          <mxGeometry width="150" height="80" as="geometry" />
        </mxCell>
        <mxCell id="qqJEVfwDHv_wI0d-Mq3L-114" value="ID" style="text;html=1;align=center;verticalAlign=middle;resizable=0;points=[];autosize=1;strokeColor=none;fillColor=none;fontStyle=4" parent="qqJEVfwDHv_wI0d-Mq3L-112" vertex="1">
          <mxGeometry x="9.67741935483871" y="24.002783216783218" width="40" height="30" as="geometry" />
        </mxCell>
        <mxCell id="qqJEVfwDHv_wI0d-Mq3L-115" value="Text" style="text;html=1;align=center;verticalAlign=middle;resizable=0;points=[];autosize=1;strokeColor=none;fillColor=none;" parent="qqJEVfwDHv_wI0d-Mq3L-112" vertex="1">
          <mxGeometry x="87.09677419354837" y="24.002783216783218" width="50" height="30" as="geometry" />
        </mxCell>
        <mxCell id="ZnK3Q-ONEJzhFzgclZN--3" value="timestamp" style="text;html=1;align=center;verticalAlign=middle;resizable=0;points=[];autosize=1;strokeColor=none;fillColor=none;fontStyle=0" vertex="1" parent="qqJEVfwDHv_wI0d-Mq3L-112">
          <mxGeometry y="39.99623776223776" width="80" height="30" as="geometry" />
        </mxCell>
        <mxCell id="ZnK3Q-ONEJzhFzgclZN--4" value="DateTime" style="text;html=1;align=center;verticalAlign=middle;resizable=0;points=[];autosize=1;strokeColor=none;fillColor=none;" vertex="1" parent="qqJEVfwDHv_wI0d-Mq3L-112">
          <mxGeometry x="72.5806451612903" y="38.54823776223776" width="80" height="30" as="geometry" />
        </mxCell>
        <mxCell id="qqJEVfwDHv_wI0d-Mq3L-121" value="" style="endArrow=none;html=1;rounded=0;" parent="1" source="qqJEVfwDHv_wI0d-Mq3L-50" target="qqJEVfwDHv_wI0d-Mq3L-15" edge="1">
          <mxGeometry width="50" height="50" relative="1" as="geometry">
            <mxPoint x="350" y="150" as="sourcePoint" />
            <mxPoint x="350" y="70" as="targetPoint" />
          </mxGeometry>
        </mxCell>
        <mxCell id="qqJEVfwDHv_wI0d-Mq3L-116" value="Quiz has Questions" style="ellipse;whiteSpace=wrap;html=1;" parent="1" vertex="1">
          <mxGeometry x="320" y="20" width="140" height="70" as="geometry" />
        </mxCell>
        <mxCell id="qqJEVfwDHv_wI0d-Mq3L-126" value="" style="endArrow=none;html=1;rounded=0;exitX=0.5;exitY=0;exitDx=0;exitDy=0;entryX=0.5;entryY=1;entryDx=0;entryDy=0;" parent="1" source="qqJEVfwDHv_wI0d-Mq3L-113" target="qqJEVfwDHv_wI0d-Mq3L-15" edge="1">
          <mxGeometry width="50" height="50" relative="1" as="geometry">
            <mxPoint x="170" y="300" as="sourcePoint" />
            <mxPoint x="220" y="160" as="targetPoint" />
          </mxGeometry>
        </mxCell>
        <mxCell id="qqJEVfwDHv_wI0d-Mq3L-124" value="Session has Exercise" style="ellipse;whiteSpace=wrap;html=1;" parent="1" vertex="1">
          <mxGeometry x="100" y="180" width="140" height="70" as="geometry" />
        </mxCell>
        <mxCell id="qqJEVfwDHv_wI0d-Mq3L-127" value="" style="endArrow=none;html=1;rounded=0;exitX=0.5;exitY=1;exitDx=0;exitDy=0;entryX=1;entryY=0.5;entryDx=0;entryDy=0;" parent="1" source="qqJEVfwDHv_wI0d-Mq3L-50" target="qqJEVfwDHv_wI0d-Mq3L-113" edge="1">
          <mxGeometry width="50" height="50" relative="1" as="geometry">
            <mxPoint x="548" y="88" as="sourcePoint" />
            <mxPoint x="250" y="87" as="targetPoint" />
          </mxGeometry>
        </mxCell>
        <mxCell id="qqJEVfwDHv_wI0d-Mq3L-164" value="" style="group;rounded=1;" parent="1" vertex="1" connectable="0">
          <mxGeometry x="330" y="190" width="140" height="80" as="geometry" />
        </mxCell>
        <mxCell id="qqJEVfwDHv_wI0d-Mq3L-165" value="&lt;p style=&quot;margin:0px;margin-top:4px;text-align:center;&quot;&gt;&lt;b&gt;Answer&lt;/b&gt;&lt;/p&gt;&lt;hr size=&quot;1&quot;&gt;&lt;div style=&quot;height:2px;&quot;&gt;&lt;/div&gt;" style="verticalAlign=top;align=left;overflow=fill;fontSize=12;fontFamily=Helvetica;html=1;whiteSpace=wrap;rounded=1;" parent="qqJEVfwDHv_wI0d-Mq3L-164" vertex="1">
          <mxGeometry width="140" height="80" as="geometry" />
        </mxCell>
        <mxCell id="qqJEVfwDHv_wI0d-Mq3L-166" value="answer" style="text;html=1;align=center;verticalAlign=middle;resizable=0;points=[];autosize=1;strokeColor=none;fillColor=none;" parent="qqJEVfwDHv_wI0d-Mq3L-164" vertex="1">
          <mxGeometry x="-5" y="39.99678321678322" width="60" height="30" as="geometry" />
        </mxCell>
        <mxCell id="qqJEVfwDHv_wI0d-Mq3L-167" value="Text" style="text;html=1;align=center;verticalAlign=middle;resizable=0;points=[];autosize=1;strokeColor=none;fillColor=none;" parent="qqJEVfwDHv_wI0d-Mq3L-164" vertex="1">
          <mxGeometry x="90" y="39.99678321678322" width="50" height="30" as="geometry" />
        </mxCell>
        <mxCell id="qqJEVfwDHv_wI0d-Mq3L-192" value="&lt;u&gt;ID&lt;/u&gt;" style="text;html=1;align=center;verticalAlign=middle;resizable=0;points=[];autosize=1;strokeColor=none;fillColor=none;" parent="qqJEVfwDHv_wI0d-Mq3L-164" vertex="1">
          <mxGeometry y="20.00298076923076" width="40" height="30" as="geometry" />
        </mxCell>
        <mxCell id="qqJEVfwDHv_wI0d-Mq3L-193" value="int" style="text;html=1;align=center;verticalAlign=middle;resizable=0;points=[];autosize=1;strokeColor=none;fillColor=none;" parent="qqJEVfwDHv_wI0d-Mq3L-164" vertex="1">
          <mxGeometry x="90" y="20.00298076923076" width="40" height="30" as="geometry" />
        </mxCell>
        <mxCell id="qqJEVfwDHv_wI0d-Mq3L-170" value="0,n" style="text;html=1;strokeColor=none;fillColor=none;align=center;verticalAlign=middle;whiteSpace=wrap;rounded=0;" parent="1" vertex="1">
          <mxGeometry x="150" y="110" width="60" height="30" as="geometry" />
        </mxCell>
        <mxCell id="qqJEVfwDHv_wI0d-Mq3L-171" value="1,1" style="text;html=1;strokeColor=none;fillColor=none;align=center;verticalAlign=middle;whiteSpace=wrap;rounded=0;" parent="1" vertex="1">
          <mxGeometry x="150" y="270" width="60" height="30" as="geometry" />
        </mxCell>
        <mxCell id="qqJEVfwDHv_wI0d-Mq3L-172" value="0,n" style="text;html=1;strokeColor=none;fillColor=none;align=center;verticalAlign=middle;whiteSpace=wrap;rounded=0;" parent="1" vertex="1">
          <mxGeometry x="250" y="280" width="60" height="30" as="geometry" />
        </mxCell>
        <mxCell id="qqJEVfwDHv_wI0d-Mq3L-173" value="0,n" style="text;html=1;strokeColor=none;fillColor=none;align=center;verticalAlign=middle;whiteSpace=wrap;rounded=0;" parent="1" vertex="1">
          <mxGeometry x="520" y="110" width="60" height="30" as="geometry" />
        </mxCell>
        <mxCell id="qqJEVfwDHv_wI0d-Mq3L-174" value="1,1" style="text;html=1;strokeColor=none;fillColor=none;align=center;verticalAlign=middle;whiteSpace=wrap;rounded=0;" parent="1" vertex="1">
          <mxGeometry x="480" y="30" width="60" height="30" as="geometry" />
        </mxCell>
        <mxCell id="qqJEVfwDHv_wI0d-Mq3L-175" value="0,n" style="text;html=1;strokeColor=none;fillColor=none;align=center;verticalAlign=middle;whiteSpace=wrap;rounded=0;" parent="1" vertex="1">
          <mxGeometry x="240" y="30" width="60" height="30" as="geometry" />
        </mxCell>
        <mxCell id="qqJEVfwDHv_wI0d-Mq3L-178" value="" style="group;fillColor=#fff2cc;strokeColor=#d6b656;" parent="1" vertex="1" connectable="0">
          <mxGeometry x="530" y="240" width="140" height="140" as="geometry" />
        </mxCell>
        <mxCell id="qqJEVfwDHv_wI0d-Mq3L-168" value="" style="whiteSpace=wrap;html=1;aspect=fixed;fillColor=#fff2cc;strokeColor=#d6b656;" parent="qqJEVfwDHv_wI0d-Mq3L-178" vertex="1">
          <mxGeometry width="140" height="140" as="geometry" />
        </mxCell>
        <mxCell id="qqJEVfwDHv_wI0d-Mq3L-169" value="&lt;h1&gt;Looper&lt;br&gt;&lt;/h1&gt;&lt;div&gt;Version : 1.0&lt;/div&gt;&lt;div&gt;Authors :&amp;nbsp;Sha-No-Vic&lt;br&gt;Date : 06.09.2023&lt;/div&gt;" style="text;html=1;strokeColor=#d6b656;fillColor=#fff2cc;spacing=5;spacingTop=-20;whiteSpace=wrap;overflow=hidden;rounded=0;" parent="qqJEVfwDHv_wI0d-Mq3L-178" vertex="1">
          <mxGeometry width="140" height="140" as="geometry" />
        </mxCell>
      </root>
    </mxGraphModel>
  </diagram>
</mxfile>
